<?xml version="1.0" encoding="utf-8"?>
<!-- Generator: Adobe Illustrator 23.0.1, SVG Export Plug-In . SVG Version: 6.00 Build 0)  -->
<svg version="1.1" id="fc836297-f37e-43a2-86b4-5406f4a63596"
	 xmlns="http://www.w3.org/2000/svg" xmlns:xlink="http://www.w3.org/1999/xlink" x="0px" y="0px" viewBox="0 0 1130.1 738.1"
	 style="enable-background:new 0 0 1130.1 738.1;" xml:space="preserve">
<style type="text/css">
	.st0{opacity:0.1;fill:#0089CC;enable-background:new    ;}
	.st1{fill:#565661;}
	.st2{opacity:0.1;enable-background:new    ;}
	.st3{fill:#BCBEC9;}
	.st4{fill:#EFEFF0;}
	.st5{fill:#FFFFFF;}
	.st6{fill:url(#SVGID_1_);}
	.st7{fill:#A26565;}
	.st8{fill:#00719E;}
	.st9{opacity:5.000000e-02;fill:#414042;enable-background:new    ;}
	.st10{fill:#00AEFF;}
	.st11{fill:#414042;}
	.st12{opacity:0.1;}
	.st13{fill:#A1616A;}
	.st14{fill:#464353;}
	.st15{opacity:0.1;fill:#6C63FF;enable-background:new    ;}
	.st16{fill:#535461;}
	.st17{fill:#9D9CB5;}
	.st18{fill:none;stroke:#535461;stroke-width:2;stroke-miterlimit:10;}
	.st19{fill:#DFE6F5;}
	.st20{fill:#474157;}
	.st21{fill:#939598;}
	.st22{fill:#C8CAD7;}
	.st23{fill:#EDEDF4;}
</style>
<title>pair programming</title>
<path class="st0" d="M584.5,132.7c-71.4,12.1-142.6,6.9-211.2-0.6c-68.6-7.5-137-17.3-208.4-14.4c-45.9,1.9-97.1,11-129.1,37.5
	C4.9,180.6,0.1,215,0,245.9c-0.1,23.3,1.9,47.4,18.5,66c11.5,12.9,29.2,22.1,42.5,34c46.3,41.3,32.2,106.3,1.8,161.6
	c-14.3,25.9-31.7,51.5-41.4,78s-11,55,6.4,76.7c17.2,21.5,50.5,33.6,85.3,39.8c70.5,12.7,149.1,4.8,225.2-5.9
	c168.3-23.8,334.8-60.9,501-98c61.5-13.7,123.3-27.5,182.5-47.2c32.9-11,66.4-24.7,87.7-46c27-27,27.7-63.9,1.7-86
	c-43.7-37-142.5-28.8-176.3-71.1c-18.6-23.3-10.5-54.9,4.3-82.9c31.7-59.9,93-119.1,85.1-178.9c-5.5-41-47.3-74.9-103.3-83.8
	c-58.7-9.3-134.2,8.3-168,49.6C718,94.5,647.5,122.1,584.5,132.7z"/>
<rect x="360" y="359.2" class="st1" width="283.4" height="65.6"/>
<rect x="360" y="359.2" class="st2" width="283.4" height="65.6"/>
<polygon class="st3" points="393.9,427 395.9,602.2 368.6,671.1 366.5,427 "/>
<polygon class="st1" points="363,371.8 638.9,373.5 638.9,422.4 363,422.4 "/>
<polygon class="st3" points="615.3,427 638.9,430.4 638.9,668.4 615.3,595.6 "/>
<rect x="647.9" y="361.9" class="st4" width="133" height="282.6"/>
<rect x="658.5" y="369.7" class="st1" width="111.7" height="217.2"/>
<rect x="658.5" y="369.7" class="st2" width="111.7" height="217.2"/>
<rect x="658.5" y="374.2" class="st1" width="111.7" height="48.2"/>
<rect x="658.5" y="427" class="st1" width="111.7" height="102.4"/>
<rect x="658.5" y="535.8" class="st1" width="111.7" height="102.4"/>
<rect x="658.5" y="535.8" class="st2" width="111.7" height="102.4"/>
<ellipse class="st1" cx="663.2" cy="653.7" rx="7.2" ry="9.2"/>
<ellipse class="st1" cx="763.1" cy="654.1" rx="7.2" ry="9.2"/>
<polygon class="st4" points="359,671.1 368.6,671.1 366,364.3 351.4,364.3 "/>
<polygon class="st4" points="638.9,361.9 638.9,668.4 647.9,668.4 647.9,364.3 "/>
<polygon class="st4" points="366.5,419.4 366.5,430.4 638.9,430.4 638.9,422.4 "/>
<polygon class="st5" points="384.9,341.3 730.4,341.3 780.6,357.9 780.6,367.5 349.7,364.2 349.7,354.4 "/>
<polygon class="st3" points="349.7,354.4 780.6,357.9 780.6,367.5 349.7,364.2 "/>
<linearGradient id="SVGID_1_" gradientUnits="userSpaceOnUse" x1="421.41" y1="189.225" x2="423.73" y2="189.225" gradientTransform="matrix(1 0 0 -1 -34.96 656.96)">
	<stop  offset="0" style="stop-color:#808080;stop-opacity:0.25"/>
	<stop  offset="0.54" style="stop-color:#808080;stop-opacity:0.12"/>
	<stop  offset="1" style="stop-color:#808080;stop-opacity:0.1"/>
</linearGradient>
<path class="st6" d="M388.7,468.7l-2-0.3c0-0.1,0-0.2,0-0.3c-0.1-0.5-0.1-0.9-0.2-1.4c0.8,0.7,1.6,1.3,2.3,2H388.7z"/>
<path class="st7" d="M345.3,623.1c1.3-0.3,2.6-0.5,3.9-0.7c9.1-1.3,18.3,0.1,26.6,3.9c-0.8,6.2-1.7,12.6,0.1,18.5
	c1.2,4.2,3.7,8,4.3,12.4c2.7,0.5,4.9,2.4,5.8,5.1c0.4,1.1,0.6,2.4,0.6,3.6c0,1.5-0.2,3-0.6,4.4c-0.3,2.4-2.4,4.2-4.8,4
	c-7.7,0.9-15.3-2.2-22.5-5.2l-14-5.8c-1.6-0.7-3.3-1.4-4.9-2.2c-3-1.6-5.6-3.8-7.8-6.4c-0.5-0.5-0.8-1-0.9-1.7
	c-0.3-1.8,1.8-2.8,3.1-4c0.4-0.4,0.7-0.8,1-1.2c1.5-2.3,1.7-5.6,2.6-8.3c2.2-6.5,9-10.8,11.4-17.2c0.1-0.3,0.3-0.7,0.4-1.1"/>
<path class="st2" d="M386.5,665.9c0,1.5-0.2,3-0.6,4.4c-0.3,2.4-2.4,4.2-4.8,4c-7.7,0.9-15.3-2.2-22.5-5.2l-14-5.8
	c-1.6-0.7-3.3-1.4-4.9-2.2c-3-1.6-5.6-3.8-7.8-6.4c-0.5-0.5-0.8-1-0.9-1.7c-0.3-1.8,1.8-2.8,3.1-4c0.4-0.4,0.7-0.8,1-1.2
	c3.9,0.8,8.6,3.3,11.6,4.2c3,0.8,5.8,2,8.4,3.5c3.7,2.4,6.3,6,9.5,9s7.1,5.7,11.5,5.4c2.3-0.3,4.5-1.1,6.5-2.3L386.5,665.9z"/>
<path class="st8" d="M370.1,523.8c0.5,1.9-0.1,3.9-1.7,5c-1.3,0.8-3,0.7-4.3,1.6c-1.6,1.1-1.8,3.4-2.1,5.3c-1,6.7-4.3,12.7-7.1,18.8
	s-5.2,12.8-4.2,19.5c0.7,4.5,2.9,9.3,0.9,13.4c-0.5,1-1.3,1.9-1.9,2.9c-2.9,4.8-1.2,10.8-1.3,16.3c0,0.6-0.1,1.2-0.4,1.8
	c-0.4,0.5-1,0.9-1.6,1.2c-2.1,1.5-3.3,3.9-3.4,6.4c-0.1,2.5,0.2,5,0.9,7.5c0.1,1,0.5,1.9,1.2,2.6c0.8,0.5,1.7,0.8,2.7,0.8
	c6.3,0.5,12.4,2,18.3,4.4c3.8,1.6,7.5,3.6,11.5,4.3c0.8,0.2,1.6,0.2,2.4-0.3c0.5-0.5,0.9-1.1,1-1.7c1.5-5.1,3.1-10.4,2.6-15.7
	c-0.2-2.3-0.8-4.5-1-6.8c-0.7-9,5.4-17.1,7.3-26c0.9-4,0.9-8.1,1.5-12.2c1.7-11.1,7.8-21,10.1-32c0.3-2,0.8-4,1.5-6
	c1.8-4.2,5.8-7.7,5.9-12.3c0.1-1-0.2-2-0.8-2.9c-0.9-1-2.2-1.7-3.6-2c-5.4-1.5-11-2.6-16.5-3.3c-2.6-0.5-5.2-0.7-7.8-0.5
	c-3.4,0.4-6.6,1.5-9.5,3.4C366.8,519.8,369.3,520.3,370.1,523.8z"/>
<path class="st9" d="M370.1,523.8c0.5,1.9-0.1,3.9-1.7,5c-1.3,0.8-3,0.7-4.3,1.6c-1.6,1.1-1.8,3.4-2.1,5.3c-1,6.7-4.3,12.7-7.1,18.8
	s-5.2,12.8-4.2,19.5c0.7,4.5,2.9,9.3,0.9,13.4c-0.5,1-1.3,1.9-1.9,2.9c-2.9,4.8-1.2,10.8-1.3,16.3c0,0.6-0.1,1.2-0.4,1.8
	c-0.4,0.5-1,0.9-1.6,1.2c-2.1,1.5-3.3,3.9-3.4,6.4c-0.1,2.5,0.2,5,0.9,7.5c0.1,1,0.5,1.9,1.2,2.6c0.8,0.5,1.7,0.8,2.7,0.8
	c6.3,0.5,12.4,2,18.3,4.4c3.8,1.6,7.5,3.6,11.5,4.3c0.8,0.2,1.6,0.2,2.4-0.3c0.5-0.5,0.9-1.1,1-1.7c1.5-5.1,3.1-10.4,2.6-15.7
	c-0.2-2.3-0.8-4.5-1-6.8c-0.7-9,5.4-17.1,7.3-26c0.9-4,0.9-8.1,1.5-12.2c1.7-11.1,7.8-21,10.1-32c0.3-2,0.8-4,1.5-6
	c1.8-4.2,5.8-7.7,5.9-12.3c0.1-1-0.2-2-0.8-2.9c-0.9-1-2.2-1.7-3.6-2c-5.4-1.5-11-2.6-16.5-3.3c-2.6-0.5-5.2-0.7-7.8-0.5
	c-3.4,0.4-6.6,1.5-9.5,3.4C366.8,519.8,369.3,520.3,370.1,523.8z"/>
<polygon class="st1" points="350.5,674.5 342,674.5 336.4,559.8 336,553.3 343.3,550.8 343.8,557.7 "/>
<polygon class="st2" points="343.8,557.7 336.4,559.8 336,553.3 343.3,550.8 "/>
<polygon class="st1" points="457.6,698.7 443.5,700.4 378.7,553.3 361.2,552 330.5,561 324.5,736.1 310.5,736.1 316,554.6 
	282.3,555.5 222.2,705.1 209.4,705.1 272.6,530.2 275.1,523.5 369.3,520.2 392.8,533.4 393.1,534.2 "/>
<path class="st2" d="M393.1,534.2c-20.3,6.1-41.3,12.8-41.3,12.8s-19.2,6.7-27.3,0c-1-0.8-2.2-1.4-3.4-1.9c1.1,0.8,2.2,1.4,3.4,1.9
	l-51.9-16.7l2.4-6.7l94.2-3.2l23.5,13.2L393.1,534.2z"/>
<path class="st5" d="M297.3,505.1l38.4-8.5c0,0,91.7,17.1,98.5,23.9c0,0-73.3,14.9-81.4,20S296.4,551.2,297.3,505.1z"/>
<path class="st10" d="M280.8,409.2c-3,9.5-11.2,18.1-21.2,18.5c-0.7,0.1-1.5,0-2.1-0.4c-1.3-0.8-1.3-2.6-0.8-4s1.4-2.6,1.5-4.1
	c0-0.3,0-0.6-0.1-0.9c-0.3-1.2-1.2-2.3-2.4-2c1.6-1.3,2-3.6,0.9-5.3c-0.5-0.5-0.9-1.1-1.2-1.6c-0.8-1.7,0.5-3.6,1-5.4
	c1.1-4-1.7-8-1.9-12.2c-0.2-3.7,1.7-7.2,2.2-10.9c0.8-6-2.2-11.8-2.6-17.7c-0.2-4.2,0.8-8.3,1.9-12.4c1-3.6,2.1-7.2,2.2-11
	c0-2.7-0.5-5.4-0.6-8.1c-0.2-2.5,0.2-5,1.3-7.2c0.7-1.3,1.9-2.3,3.3-2.8c3.3-1.1,5.4,0.6,5.9,3.7c0.8,5.3,0.3,10.7,1.4,16
	c1,5,2.4,9.8,4.4,14.5c1.8,4.2,3.9,8.3,5.3,12.7c1,3.6,1.8,7.3,2.2,11C282.7,389.4,283.8,399.7,280.8,409.2z"/>
<path class="st7" d="M508.5,651.3c-2.6,3.6-6.5,5.9-10.9,6.4c-4.3,0.5-8.8-0.5-13.1,0.6c-1.3,0.2-2.5,1.1-3,2.3
	c-0.1,0.8-0.2,1.6-0.2,2.5c-0.5,2.7-4,3.3-6.7,3.3l-11.3-0.1c-2.3,0-4.9-0.1-6.6-1.8c-1.7-1.8-1.7-4.6-0.1-6.5
	c0.3-0.4,0.8-0.8,1.3-1c-1.4-0.5-2.5-1.7-2.7-3.2c-0.2-1.5-0.1-3,0.2-4.4c0-4.2,1-11.2,3.9-14.5c3.6-4.1,9.9-9.3,15.3-10.4
	c3.7-0.7,7.6,0.4,10.4,2.9c2.6,2.4,4.5,6.2,8,6.6c1.9,0.2,3.8-0.7,5.7-1c4.4-0.6,8.8,1.7,10.8,5.7c0.5,1,0.8,2,1,3.1
	C511.1,645.2,510.3,648.5,508.5,651.3z"/>
<path class="st2" d="M508.5,651.3c-2.6,3.6-6.5,5.9-10.9,6.4c-4.3,0.5-8.8-0.5-13.1,0.6c-1.3,0.2-2.5,1.1-3,2.3
	c-0.1,0.8-0.2,1.6-0.2,2.5c-0.5,2.7-4,3.3-6.7,3.3l-11.3-0.1c-2.3,0-4.9-0.1-6.6-1.8c-1.7-1.8-1.7-4.6-0.1-6.5
	c6.5-0.3,12.9,0,19.4-1.3c2.6-0.5,5.2-1.2,7.9-1.6c5.8-0.8,11.9-0.1,17.2-2.6c4.4-2,7.6-6.1,9.4-10.6
	C511,645.2,510.3,648.5,508.5,651.3z"/>
<path class="st11" d="M478.8,635.5c-4,3.1-8.7,5.5-13.7,5.8s-10.4-2-12.9-6.4c-3.6-6.4-0.4-15.4-4.8-21.3c-1.4-1.8-3.4-3.2-4.8-5
	s-2.3-4.5-1-6.4c-1.6,0.6-3.2-0.9-3.7-2.5s-0.2-3.4-0.5-5c-0.7-4.3-5-7.1-7-11s-1.8-8.9-2-13.4c-0.5-11.1-4.7-21.8-11.8-30.3
	c-1.4-1.6-3.1-3.3-5.2-3.2c0.4-3.7-2.1-7.2-5.2-9s-6.9-2.5-10.6-2.8c-36.9-3.6-75.4,10.1-110.7-1.5c-9.8-3.2-19.3-8.6-25.3-17
	c-4.7-6.5-6.6-14.6-5.3-22.5v-0.1c1.4-7.1,5.1-8.8,11.4-12.1c7.2-3.8,14.7-6.9,22.4-9.4c15-4.7,31.1-6.4,46.6-2.9
	c7.2,1.6,14.2,4.3,21.4,5.9c2.9,0.6,5.7,1.1,8.6,1.4c4.5,0.6,9,0.9,13.5,1.5c14.5,1.7,28.7,4.9,42.5,9.5c5.1,1.7,10.3,3.7,14.7,6.9
	c7,5.1,11.7,12.8,13,21.5c0.4,2.9,0.4,6,1.1,8.9c0.6,2.4,1.4,4.7,2.4,7c8.5,21.1,15.5,42.9,20.9,65c0.3,1.6,0.9,3.2,1.7,4.7
	c1.3,2.1,3.5,3.5,4.8,5.5c3,4.9,0.1,11.7,2.8,16.8c0.9,1.8,2.5,3.2,3.4,4.9C488.4,624.6,483.9,631.5,478.8,635.5z"/>
<path class="st2" d="M427.7,520.6c1.4-1.1,2.6-2.5,3.6-4c1-1.5,1.4-3.4,1.1-5.2c0.8,4.6-0.7,9.3-3.9,12.7c-2.5,2.6-7.2,5.1-10.9,4.2
	C418.2,525.4,425.4,522.5,427.7,520.6z"/>
<path class="st2" d="M365.2,470.7c-0.6,2.2-2.3,3.9-4.4,4.6c-2.1,0.7-4.4,0.9-6.6,0.8h-2c-26.2-0.6-52.8-6.4-78.4-0.8
	c-3.1,0.6-6.1,1.5-9.1,2.7c-3.7,1.5-7.3,3.5-10.4,6v-0.1c1.4-7.1,5.1-8.8,11.4-12.1c7.2-3.8,14.6-6.9,22.4-9.3
	c15-4.7,31.1-6.4,46.6-2.9c7.2,1.6,14.2,4.3,21.4,5.9c2.9,0.6,5.7,1.1,8.6,1.4C365.3,468,365.5,469.4,365.2,470.7z"/>
<path class="st7" d="M365.2,469.3c-0.6,2.2-2.3,3.9-4.4,4.6c-2.1,0.7-4.4,0.9-6.6,0.8h-2c-26.2-0.6-52.8-6.4-78.4-0.8
	c-3.1,0.6-6.1,1.5-9.1,2.7c-3.9,1.6-7.6,3.7-10.9,6.4c-0.8-2.1-1.5-4.2-2.3-6.3c-0.9-2.5,2-3.1,2.6-5.3c0.4-1.5-0.3-3.3-0.6-4.9
	c-0.1-0.4-0.1-0.8-0.2-1.2c-0.2-3.6,1.1-5.7,4.1-7.6c8.8-5.8,19.5-9.8,29.5-12.8c5.3-1.7,10.8-2.8,16.4-3.2c7.9-0.5,15.8,1,23.4,2.8
	c9.4,2.3,18.8,5.4,27.1,10.3c4.1,2.4,8.1,5.4,10.3,9.7C365.1,465.8,365.5,467.6,365.2,469.3z"/>
<path class="st2" d="M280.8,409.2c-3,9.5-11.2,18.1-21.2,18.5c-0.7,0.1-1.5,0-2.1-0.4c-1.3-0.8-1.3-2.6-0.8-4s1.4-2.6,1.5-4.1
	c0-0.3,0-0.6-0.1-0.9c5.3-7.5,10.4-15,12.5-23.8c0.4-1.5,0.5-3.1,0.4-4.7c-0.3-1.8-1.2-3.4-1.7-5.2c-0.9-3.1-0.5-6.3-0.2-9.5
	c1-14-1.3-28.1-6.8-41.1c-1.4-3.1-2.9-6.3-3.4-9.6c0.7-1.3,1.9-2.3,3.3-2.8c3.3-1.1,5.4,0.6,5.9,3.7c0.8,5.3,0.3,10.7,1.4,16
	c1,5,2.4,9.8,4.4,14.5c1.8,4.2,3.9,8.3,5.3,12.7c1,3.6,1.8,7.3,2.2,11C282.7,389.4,283.8,399.7,280.8,409.2z"/>
<path class="st2" d="M365.2,469.3c-0.6,2.2-2.3,3.9-4.4,4.6c-2.1,0.7-4.4,0.9-6.6,0.8h-2c-8.5-5.7-18.8-8.2-29-7
	c-3.3,0.4-6.5,1.2-9.8,0.8c-6.6-0.6-11.9-5.3-17.8-8.4c-13.7-6.7-30.1-4.5-41.4,5.6l-0.6,0.5c-0.1-0.4-0.1-0.8-0.2-1.2
	c-0.2-3.6,1.1-5.7,4.1-7.6c8.8-5.8,19.5-9.8,29.5-12.8c5.3-1.7,10.8-2.8,16.4-3.2c7.9-0.5,15.8,1,23.4,2.8
	c9.4,2.3,18.8,5.4,27.1,10.3c4.1,2.4,8.1,5.4,10.3,9.7C365.1,465.8,365.5,467.6,365.2,469.3z"/>
<path class="st10" d="M387.6,359.8l-0.1,0.4c-2.2,5.8-6.4,10.7-9,16.4c-3.3,7.2-4.1,15.2-4.9,23.1c-0.6,6.8-1.3,13.5-0.8,20.3
	c1.3,16.7,9.4,32.5,11.6,48.9c0.5,3.8,0.7,7.6,0.4,11.4c-0.2,2.4-0.6,5-2.2,6.8s-4.7,2.5-6.4,0.8c0.8-1.5,1.5-2.9,2.3-4.4
	c-4.6-3.5-11.5-1-16.8-3.2c-2.4-1-4.2-2.8-6.2-4.4c-9.1-7.4-20.8-10.8-32.4-9.5c-3.3,0.4-6.5,1.2-9.8,0.9
	c-6.6-0.6-11.9-5.3-17.8-8.4c-13.7-6.7-30.1-4.5-41.4,5.6c-1.4,1.3-3.3,2.8-5,2c-0.7-0.4-1.2-1-1.5-1.7c-6.5-11.2-1.7-25.6,5.3-36.5
	s16.3-21,19.2-33.6c0.4-1.5,0.5-3.1,0.4-4.7c-0.3-1.8-1.2-3.4-1.7-5.2c-0.9-3.1-0.5-6.3-0.2-9.5c1-14-1.3-28.1-6.8-41.1
	c-1.6-3.7-3.5-7.5-3.5-11.6c0-6.4,4.6-11.7,8.4-16.8c4.4-5.9,8-12.4,13.5-17.3c5.2-4.6,12.8-7.4,19.2-5.1c11-2.7,22.3-3.8,33.6-3.3
	c3.9,0.2,7.9,0.6,11.4,2.5c3.7,2,6.3,5.6,9.9,7.7c2.6,1.6,5.7,2.3,8.5,3.4c7.9,3.1,14.4,8.9,18.4,16.4c4,7.8,5,16.7,5.9,25.3
	C389.7,343.6,390.5,352.1,387.6,359.8z"/>
<path class="st2" d="M372.9,419.9c1.3,16.7,9.4,32.5,11.6,48.9c-4.4-3.7-10.4-7.4-11.2-11.7c-0.9-4.6-3.8-10.7-4.3-15.4
	s2.8-10.4-0.6-13.6c-1.7-1.6,2.8-1.1,1.1-2.7c-3.7-3.6-4.6-9.1-4.8-14.3c-0.4-9.1,0.8-18.3-0.9-27.2c-1-5.5-3.1-10.8-4.8-16.1
	c-1.9-6.2-3.3-12.6-4.7-19c-1.4-5.7-2.4-11.4-3-17.3c-0.4-5-0.2-10.3,2-14.9s6.7-8.3,11.8-8.2c16.9,0.2,14,23.2,17.7,33.8
	c1.5,4.2,3.5,8.3,4.3,12.7c0.3,1.7,0.5,3.5,0.5,5.2c-2.2,5.8-6.4,10.7-9,16.4c-3.3,7.2-4.1,15.2-4.9,23.1
	C373,406.3,372.4,413.1,372.9,419.9z"/>
<path class="st10" d="M383.9,341.9c1.5,4.2,3.5,8.3,4.3,12.7c1.4,7.4-0.7,15.2,1.5,22.3c0.6,1.5,1.1,3.1,1.5,4.7
	c0.4,2.3-0.1,4.6-0.1,6.9c0,3.7,1.2,7.3,2.2,10.9c3.5,12.1,5.8,24.6,7,37.2c0.2,3.4,0.7,6.7,1.6,10c0.4,1.1,0.8,2.2,1.1,3.4
	c0.3,1.5,0.3,3.1,0.2,4.6c-0.3,4.9-0.8,9.8-0.3,14.7s2.3,9.8,6,13.1c-3.3,0.7-6.8,1.4-10,0.4c-4.5-1.5-7.2-6-9.5-10.1
	c-2.9-5.3-13.9-10-15.1-15.9c-0.9-4.6-3.8-10.7-4.3-15.4s2.8-10.4-0.6-13.6c-1.7-1.6,2.8-1.1,1.1-2.7c-3.7-3.6-4.6-9.1-4.8-14.3
	c-0.4-9.1,0.8-18.3-0.9-27.2c-1-5.5-3.1-10.8-4.8-16.1c-1.9-6.2-3.3-12.6-4.7-19c-1.4-5.7-2.4-11.4-3-17.3c-0.4-5-0.2-10.3,2-14.9
	s6.8-8.3,11.8-8.2C383,308.4,380.1,331.3,383.9,341.9z"/>
<path class="st2" d="M335.6,345.8c1.6,1.9,3.6,3.9,6,3.5c-0.4,0.6-1.2,0.8-1.8,0.4c-0.6-0.4-1-0.9-1.3-1.5l-3.4-5.8
	c-0.5-0.8-3.5-5.1-4.3-2.6C330.5,340.9,334.9,344.9,335.6,345.8z"/>
<path class="st2" d="M333.8,360.2c-0.1-1.9-0.9-3.7-2.2-5c-1.2-1.1-2.6-1.9-4.1-2.5c-3.8-1.5-8.2-2.8-12.3-2.6
	c1.5,2.2,6.2,3.5,8.6,4.7C327.2,356.6,330.5,358.4,333.8,360.2z"/>
<path class="st2" d="M344.5,401.2c-0.7,5.1-4.9,9-9.1,12s-9,5.6-11.8,9.9c-1.9,3-2.8,6.5-4.4,9.6c-1.8,3.5-4.5,6.3-6.6,9.6
	s-3.8,7.1-3.2,11c0,0.4,0.2,0.7,0.5,0.9c0.4,0.2,0.9,0.1,1.3-0.1c4.4-2.3,6.1-7.5,7.9-12c1.9-4.6,4.1-9,6.5-13.3
	c1.1-2,2.3-4.2,4.3-5.3c1.4-0.6,2.8-1.1,4.2-1.5c2-0.9,3.8-2.3,5.2-4.1c5.5-6.5,8.3-14.8,8-23.3c-0.1-1.8-0.2-10.4-2.9-7.8
	S344.9,397.7,344.5,401.2z"/>
<path class="st7" d="M351,204.8c8.6,3.8,16,12,15.7,21.4c-0.2,9.8-8.5,19.1-5.6,28.5c1.6,5.5,6.6,9.1,10.5,13.3
	c14.9,15.8,14.9,43.3-0.1,59c-5.7,6-13.1,10.3-19.1,16c-21.3,20.1-22.2,54.9-10.8,81.9c-8.7,1.9-17.7,2.9-26.6,3
	c-4.2,0-9.3-0.7-10.8-4.6c-1.4-3.6,1-8.5-1.8-11.2c-1.3-1.3-3.3-1.4-5-1.7c-11.3-1.8-20.5-10.8-24.7-21.4s-4-22.5-1.6-33.6
	c1.7-8,4.4-16.9,0.4-24.1c-5-9.1-19.4-12.9-19.2-23.2c0.2-8.5,10.2-12.6,15.9-18.9c10.5-11.6,5.5-29.6,5.5-45.3
	c0-13.8,4.8-28,15.1-37.2C304,192.7,333.4,197.2,351,204.8z"/>
<g class="st12">
	<path d="M273.2,320.8c-4.4-7.9-15.9-11.8-18.6-19.6c-1.3,1.8-2.1,4-2.2,6.3c-0.2,10.4,14.1,14.2,19.2,23.3c1.6,3.2,2.3,6.8,2,10.4
		C275.1,334.2,276.5,326.9,273.2,320.8z"/>
	<path d="M362.3,241.8c1.8-5.3,4.4-10.5,4.5-16c0-0.6,0-1.2,0-1.8C364.8,230.1,361.7,235.9,362.3,241.8z"/>
	<path d="M274.9,269.8c3.4-10.9,0.5-24.3,0.5-36.4c0-1.5,0.1-2.9,0.2-4.4c-1.2,4.7-1.8,9.5-1.8,14.3
		C273.8,251.9,275.3,261.2,274.9,269.8z"/>
	<path d="M373.2,316.7c-5.7,6-13.1,10.3-19.1,16c-10.8,10.2-16.4,24.1-17.7,38.9c2.6-11,7.8-21.1,16.1-29c6-5.7,13.4-10,19.1-16
		c6.8-7.4,10.8-17,11.1-27.1C381.1,305.9,377.8,311.8,373.2,316.7z"/>
	<path d="M316.7,417.5c-4.2,0-9.3-0.7-10.8-4.6c-1.4-3.6,1-8.5-1.8-11.2c-1.3-1.3-3.3-1.4-5-1.7c-11.3-1.8-20.5-10.8-24.7-21.4
		c-3.1-7.8-3.8-16.4-3-24.8c-0.1,0.3-0.1,0.7-0.2,1c-2.4,11.1-2.6,23.1,1.6,33.7s13.5,19.6,24.7,21.4c1.8,0.3,3.7,0.5,5,1.7
		c2.8,2.7,0.4,7.6,1.8,11.2c1.5,3.9,6.6,4.7,10.8,4.6c9-0.1,17.9-1.1,26.6-3c-1.2-2.9-2.3-5.9-3.2-8.9
		C331.2,416.7,324,417.4,316.7,417.5z"/>
</g>
<path class="st2" d="M349.4,373.9c2.5,1.9,5.1-5.2,3.6-7C352.6,367.4,349,373.6,349.4,373.9z"/>
<path class="st2" d="M360,502.2c2.9-1,6-2,7.9-4.4c1.6-1.9,2.9-9.6-0.5-5.9C364.6,495.1,363.2,499.2,360,502.2z"/>
<path class="st2" d="M389.6,494.2c-0.4,2.4-1,4.8-2.7,6.5c-0.3,0.3-1,0.5-1.1,0.1c1.9-1,3.6-2.2,5.2-3.6c3.4-3.3,3.8-11.6-1.3-13.8
	C389.6,487,390.1,490.5,389.6,494.2z"/>
<path class="st8" d="M425.1,479.3c0,0-28.4-11.2-38.6-10s11.6,17.3,11.6,17.3l13.1,8.8c0,0,8-3,8.5-3.2S425.1,479.3,425.1,479.3z"/>
<path class="st1" d="M229.9,359.7c0,0,21.3-12.4,49.5,3s32.8,105.8,32.8,105.8s-11.5,92.1,32.9,71.6c0,0,81-25.2,89.1-19.6
	c0,0,7.7,0-7.7,3.4s-74.6,22.2-74.6,22.2s-19.2,6.7-27.3,0s-31.1,0.9-34.1-45.2c-2-29-5.5-57.9-10.7-86.6l-7.9-23.5L229.9,359.7z"/>
<path class="st5" d="M227.3,502.1c0,0,9.4-93.4-6-127.1c-13.4-29.4,38.4-15.6,51.9-11.6c2.1,0.6,3.9,1.9,5.2,3.7
	c8,11.3,36.7,56.3,28.2,116.7c0,0-3.4,53.7,17.9,62.3l-65.7-21.2c-5.3-1.7-10.7-3.2-16.2-4.4C235.7,518.9,224.3,514.4,227.3,502.1z"
	/>
<polygon class="st1" points="694.5,676.5 703.1,676.5 708.7,561.8 709,555.3 701.8,552.8 701.3,559.7 "/>
<polygon class="st2" points="701.3,559.7 708.7,561.8 709,555.3 701.8,552.8 "/>
<path class="st7" d="M623.3,632.2c-0.2,1.6-0.6,3.1-1.2,4.6c-0.6,1.9-1.9,3.5-3.7,4.6c-1.2,0.5-2.4,0.7-3.7,0.7
	c-4.7,0.3-9.7,0.2-13.7-2.2c-1.7-1.1-3.3-2.4-4.7-3.9c-9.1-9-17.4-18.9-24.7-29.4c-1.2-1.8-2.5-3.9-2-6c9.5-2.6,18.6-6.8,26.8-12.3
	c1.1-0.9,2.4-1.5,3.8-2c2.3-0.5,4.7-0.6,7.1-0.3c2.3,0.4,2.4,0.4,3.2,3c1.4,4.3,1.2,9,2.8,13.3c1,2.4,2.3,4.7,3.7,6.8
	C621.2,616.2,624.4,624.5,623.3,632.2z"/>
<path class="st2" d="M623.3,632.2c-0.2,1.6-0.6,3.1-1.2,4.6c-0.6,1.9-1.9,3.5-3.7,4.6c-1.2,0.5-2.4,0.7-3.7,0.7
	c-4.7,0.3-9.7,0.2-13.7-2.2c-1.7-1.1-3.3-2.4-4.7-3.9c-9.1-9-17.4-18.9-24.7-29.4c-1.2-1.8-2.5-3.9-2-6c3.1-0.9,6.2-1.9,9.2-3.1
	l0.2,0.1c3.1,2.2,5.3,5.3,7.5,8.4l7,9.8c1.2,1.9,2.7,3.7,4.4,5.3c2.1,1.7,4.4,3,6.8,4.1c3.3,1.6,6.6,3.2,10,4.5
	C616.8,630.6,620.6,630.9,623.3,632.2z"/>
<path class="st11" d="M629.8,525.4c-0.7,1.7-1.5,3.3-2.5,4.8c-9.3,15.6-16.5,32.4-21.3,49.9c-1.4-0.3-2.2,1.6-2.2,3s0,3.2-1.3,3.8
	c-0.4,0.2-0.8,0.2-1.2,0.3c-0.8,0.4-1.1,1.5-1.2,2.4l-1.2,8.7c-0.4,3-0.8,6.3,0.7,8.9c1,1.6,2.3,2.9,3.9,4l19.5,15.4
	c0.8,0.6,1.8,1.3,2.8,1c2.2-0.8,0.3-4.7,2-6.3c1.2-1.1,3-0.3,4.6-0.4c2.1-0.2,3.7-2.1,4.2-4.1c0.4-2.1,0.4-4.2,0.1-6.3
	c-0.1-0.9,0-1.9,0.3-2.8c0.6-0.9,1.4-1.7,2.4-2.3c6.9-5,10.8-13.1,10.5-21.6c-0.2-1.3-0.1-2.6,0.1-3.8c0.4-1.2,1-2.2,1.8-3.2
	c7.1-9.6,13-20,18.9-30.4c3.4-6,6.8-12.1,8-18.8c0.4-0.9-0.1-1.9-1-2.3c-0.2-0.1-0.3-0.1-0.5-0.1c-2.9-0.9-5.9-1.6-8.9-2.1
	c-9.2-1.9-18.1-4.7-27-7.5S632.5,518.2,629.8,525.4z"/>
<polygon class="st1" points="587.5,700.7 601.6,702.4 666.4,555.3 683.9,554 714.6,563 720.5,738.1 734.6,738.1 729.1,556.6 
	762.8,557.5 822.9,707.1 835.7,707.1 772.4,532.2 770,525.5 675.8,522.2 652.3,535.4 652,536.2 "/>
<path class="st2" d="M652,536.2c20.3,6.1,41.3,12.8,41.3,12.8s19.2,6.7,27.3,0c1-0.8,2.2-1.4,3.4-1.9c-1.1,0.8-2.2,1.4-3.4,1.9
	l51.9-16.7l-2.4-6.7l-94.2-3.2l-23.5,13.2L652,536.2z"/>
<path class="st5" d="M747.8,507.1l-38.4-8.5c0,0-91.7,17.1-98.5,23.9c0,0,73.3,14.9,81.4,20S748.7,553.2,747.8,507.1z"/>
<path class="st7" d="M605.4,644.2c-2.3,4.4-8,5.6-13,5.7c-6.9,0.1-13.8-1.1-20.3-3.6c-3.7-1.4-7.3-3.3-11.1-4.3
	c-5.7-1.6-12-1.4-17-4.6c-2.7-1.8-4.8-4.1-6.4-6.9c-0.3-0.5-0.6-1-0.8-1.5c-2.4-4.7-3.5-10.1-2.2-15.1s6.2-10.5,11.8-10.5
	c6.7,0.1,14.6,3.3,21,4.9c8,2,16,4.3,23.1,8.5c5.9,3.6,11.2,8.7,13.9,14.9c0.5,1.2,1,2.4,1.3,3.7
	C606.6,638.4,606.8,641.6,605.4,644.2z"/>
<path class="st2" d="M605.4,644.2c-2.3,4.4-8,5.6-13,5.7c-6.9,0.1-13.8-1.1-20.3-3.6c-3.7-1.4-7.3-3.3-11.1-4.3
	c-5.7-1.6-12-1.4-17-4.6c-2.7-1.8-4.8-4.1-6.4-6.9c-0.3-0.5-0.6-1-0.8-1.5c1,0.1,1.9,0.2,2.4,0.2c6.1,0.6,12,2.8,17.9,4.5
	c8.1,2.3,16.5,3.7,25,3.9c6,0.2,12.3-0.3,17.5-3.2c1.6-1,3.2-1.9,4.9-2.7c0.5,1.2,1,2.4,1.3,3.7
	C606.6,638.4,606.8,641.6,605.4,644.2z"/>
<path class="st11" d="M648.4,454.1c-13-2.1-26.2-2.7-39.4-3.2l-16.1-0.6c-1.1-0.1-2.3,0-3.4,0.4c-0.9,0.6-1.8,1.3-2.7,2
	c-1.6,1.1-3.7,1.2-5.6,1.3c-13.8,0.8-27.6,2.5-41.2,5.3c-7,1.4-14.3,3.3-19.5,8.1c-5.6,5.1-8,12.9-8.2,20.4s1.8,15,3.9,22.2
	c2.7,8.7,4.1,17.8,4.4,26.9c-0.1,2.5,0,5.1,0.3,7.6c0.5,2.4,1.2,4.7,2.1,7l7.4,19.7c0.7,1.7,1.3,3.4,2,5.1s1.4,3,2,4.6
	c0.9,2.2,1.6,4.4,2.3,6.6l4.9,15.4l0.6,2c1.8,5.5,3.6,11.2,6.9,15.9s8.5,8.6,14.3,8.9c1.9-0.1,3.8,0,5.6,0.2
	c1.6,0.4,3.1,0.9,4.6,1.7c4.4,1.8,9,2.7,13.8,2.7c4.3,0,9.2-1.2,11.5-4.9c1.3-2,1.6-4.5,2-6.8c0.6-4.7,1.2-9.7-0.4-14.2
	c-1-2.7-2.7-5-3.8-7.7c-1.6-3.6-2.2-7.6-3.2-11.4c-2.3-8.2-6.9-15.6-13.3-21.2c-2.3-9-3.9-18.2-5-27.4c-0.1-2-0.6-4.1-1.2-6
	c-1.2-3-3.5-5.4-4.5-8.5c-0.9-2.8-0.7-6.1-2.3-8.6c14.1,3.9,28,3,42.6,2.8c4.7,0,9.4-0.3,14-0.8c2.2-0.4,4.4-0.6,6.6-0.7
	c4.5,0,8.8,2,12.9,3.8c11.7,5,24.1,8.9,36.8,9.5c13.2,0.5,26.2-2.5,39-5.6c5.7-1.3,11.5-2.8,16-6.5s7-10.4,4.2-15.5
	c-2.1-3.8-6.5-5.7-10.5-7.3c-11.2-4.4-22.5-8.8-33.4-14.1C678.9,475.1,666.5,457.1,648.4,454.1z"/>
<path class="st13" d="M625.2,408.8c-1.6,3.4-4.2,6.2-6.2,9.4c-3.3,5.3-4.3,11.6-3,17.7c1.4,6.1,5.6,11.1,11.3,13.7
	c2.5,1,5.1,1.6,7.8,1.9c3.5,0.4,7.3,0.5,10.4-1.2c2.3-1.4,4.2-3.4,5.5-5.8c2.7-4.5,4.2-9.6,5.6-14.6c2.6-9.3,4.8-18.9,4.5-28.5
	c-0.1-3.3-0.8-7.1-3.5-9c-1.4-0.8-3-1.3-4.6-1.5l-13.2-2.4c-2.5-0.5-7-2.3-9.2-0.5s-2.4,7.3-2.8,9.8
	C627.2,401.5,626.8,405.4,625.2,408.8z"/>
<path class="st13" d="M785.6,370.1l-3.5,28.9c-0.7,5.2-1.1,10.4-1.2,15.6c0,2.9,0.1,6.1-1.8,8.3c-0.9,1-2.1,1.7-3.4,2.1
	c-4.2,1.3-8.8,0.1-12.8-1.6c-2.3-1-4.7-2.5-5.8-4.8c-0.6-1.6-0.9-3.3-0.8-5.1c0-17.3,1.6-35.2,10.6-49.9c0.8-1.4,1.9-2.7,3.2-3.7
	c2.5-1.6,5.8-1.1,8.6-0.3c1.7,0.5,6.4,1.1,7.5,2.7S785.8,368.2,785.6,370.1z"/>
<circle class="st13" cx="694" cy="229.6" r="36"/>
<path class="st13" d="M684.4,283.2c-0.1,2.8-0.9,5.5-2.2,8c18.4-2.8,36.7-5.9,55-9.4c-6.1-3.1-10.7-8.5-12.8-15
	c-1-3.5-1.5-7.1-1.6-10.7c-0.3-5.7-0.2-11.5,0.3-17.2c-6.4,0.7-12.5,3.1-18.6,5.1c-6.1,2.1-12.4,3.8-18.7,5.2
	c-3,0.7-6.1,1.3-9.2,1.8c-3.6,0.6-5.3,0.6-2.8,3.8C680.6,263.3,685.3,271.9,684.4,283.2z"/>
<path class="st10" d="M695.5,278.4c-4.8,0.7-9.7,1.5-13.5,4.5c-1.4,1.2-2.8,2.6-4.1,4c-7.5,7.3-18.2,10.3-27.3,15.4
	c-1.5,0.7-2.8,1.8-3.9,3c-1,1.4-1.5,3.2-2.6,4.5c-1.2,1.6-3.2,2.6-4.1,4.4s-0.7,3.6-0.8,5.5c-0.2,4.1-1.8,8-3,12
	c-5.5,18.9-2.5,40-10.9,57.9c0.8,2.1,2.4,3.7,4.4,4.6c2.1,0.8,4.3,1.2,6.6,1.4l18.6,2.3c2.7,0.3,5.5,0.6,7.9-0.5
	c-2.2,6.1-3.8,12.5-4.7,18.9c-0.5,3.9-1.2,7.9-2.1,11.7c-2.6,8.8-9,16.1-16.6,21.1c-1,0.5-1.8,1.3-2.3,2.2c-1,2,0.5,4.2,1.5,6.2
	c3,5.7,2.6,12.5,2.6,18.9s0.6,13.5,5.1,18.1c2.7,2.7,6.3,4.2,9.8,5.6l29.1,11.6c4.8,2,9.8,3.7,14.8,5c7.7,1.8,15.6,1.7,23.5,1.3
	c5.2-0.2,10.4-0.6,15.6-1c2.1,0,4.1-0.5,5.9-1.5c1.5-1.2,2.7-2.8,3.5-4.7c4-8.8,5.4-19.1,11.7-26.5c4.3-5.1,11-9.1,11.5-15.8
	c0.2-3.3-1.2-6.5-1.3-9.8c0-4.1,2.1-7.9,2-12c-0.3-6.6-6.5-11.7-7.5-18.2c-2.5-16.6,5.9-33.1,11.1-49.1c0.9-2.9,2.1-6,4.9-7.2
	s6.6-0.6,7.6-3.3c2.5-6.8,3.1-14.7,2.7-21.9c-0.2-4.2-1.7-8.3-1.5-12.4c0.1-2.9,1.1-5.8,1.3-8.7c0.4-4.4-0.8-8.8-2-13.1
	c-0.3-1.5-0.9-3-1.6-4.4c-0.7-1.3-1.6-2.5-2.6-3.6l-4.9-5.8c-2.3-2.7-4.7-5.5-8-6.9c-1.1-2.6-4.5-4.5-6.9-5.9
	c-2.5-1.4-5-2.7-7.6-3.8l-27.5-12.2c-1-0.5-2.1-0.9-3.3-1.1c-1.7-0.1-3.3,0.3-4.9,1C713.2,273.7,704.5,277.1,695.5,278.4z"/>
<path class="st14" d="M666.3,235.8c-1.1-3.7-3.8-7-4.2-10.8c-0.4-3.4,1.1-6.8,2-10.1s0.8-7.4-1.8-9.6c-0.4-0.4-1-0.7-1.2-1.3
	c-0.3-1,0.7-1.9,1-2.9c0.6-2-1.9-4.2-1-6.1c0.5-1,1.8-1.4,2.9-1.8c4.3-1.3,8.6-4.1,9.5-8.5c3.3,1.4,6.9-1.2,9.5-3.8s5.7-5.5,9.3-4.7
	l-0.8,1.6c5.5-2,11.4-2,16.9-0.2h-1.7c4.8,0.1,9.5,1.7,13.4,4.5c-0.4,0-0.5,0.6-0.3,1c1.4,3.3,5,5,8.5,5.8c2.1,0.5,4.4,0.9,5.9,2.4
	s1.6,4.6-0.5,5.4c4.1,1.6,8,3.7,11.6,6.3c1,0.7,2.1,1.7,2,3c-0.1,0.6-0.4,1.3-0.6,1.9c-0.2,1.1-0.1,2.2,0.2,3.2l1.1,4.6
	c1.2,5.1,2.2,11.2-1.5,14.9c2.9,5.3,1.9,11.9-2.4,16.2c1.2,3.5-0.7,7.3-4.2,8.4c-0.2,0.1-0.5,0.1-0.8,0.2c1.2,1.9,0.1,4.7-1.8,5.9
	s-4.4,1.2-6.6,1s-4.5-0.7-6.8-0.4c-3.3,0.5-6.5,2.8-9.7,1.8c-1.2-0.5-2.3-1.1-3.4-1.8c-2.2-1.2-4.8-1.5-7.3-2
	c-4.2-0.9-8.2-2.6-11.7-5c-2.4-1.4-4.2-3.5-5.4-6c-2.2-5.6,1.5-12.9-2.4-17.4c-2.3-2.6-6.8-2.7-9.3-0.4c-1.3,1.1-1.4,3.5-2.8,4.4
	C670.1,235.8,668.2,236,666.3,235.8z"/>
<path class="st2" d="M617.4,522.6c-1.4-1.1-2.6-2.5-3.6-4c-1-1.5-1.4-3.4-1.1-5.2c-0.8,4.6,0.7,9.3,3.9,12.7
	c2.5,2.6,7.2,5.1,10.9,4.2C626.9,527.4,619.7,524.5,617.4,522.6z"/>
<path class="st1" d="M815.2,361.7c0,0-21.3-12.4-49.5,3s-32.8,105.8-32.8,105.8s11.5,92.1-32.9,71.6c0,0-81-25.2-89.1-19.6
	c0,0-7.7,0,7.7,3.4s74.7,22.2,74.7,22.2s19.2,6.7,27.3,0s31.1,0.9,34.1-45.2c2-29,5.5-57.9,10.7-86.6l7.9-23.5L815.2,361.7z"/>
<path class="st5" d="M817.8,504.1c0,0-9.4-93.4,6-127.1c13.4-29.4-38.4-15.6-51.9-11.6c-2.1,0.6-3.9,1.9-5.2,3.7
	c-8,11.3-36.7,56.3-28.2,116.7c0,0,3.4,53.7-17.9,62.3l65.7-21.2c5.3-1.7,10.7-3.2,16.2-4.4C809.4,520.9,820.8,516.4,817.8,504.1z"
	/>
<ellipse class="st15" cx="990" cy="670.1" rx="97.4" ry="15.7"/>
<rect x="986.8" y="370.3" class="st16" width="6.3" height="141.2"/>
<path class="st1" d="M1032.5,511l-0.4,6.4l-0.6,9l-0.2,3.7l-0.6,9l-0.2,3.7l-0.6,9l-6.3,102.1c-0.6,9.1-8.1,16.2-17.3,16.2h-32.9
	c-9.1,0-16.7-7.1-17.2-16.2l-6.3-102.1l-0.5-9l-0.2-3.7l-0.6-9l-0.2-3.7l-0.5-9l-0.4-6.4c-0.3-5,3.5-9.2,8.5-9.5c0.2,0,0.3,0,0.5,0
	h67.2c5,0,9,4.1,8.9,9.1C1032.5,510.6,1032.5,510.8,1032.5,511z"/>
<polygon class="st17" points="1032.1,517.4 1031.6,526.3 948.4,526.3 947.8,517.4 "/>
<polygon class="st17" points="1031.3,530.1 1030.8,539.1 949.2,539.1 948.6,530.1 "/>
<polygon class="st17" points="1030.5,542.8 1030,551.8 950,551.8 949.4,542.8 "/>
<path class="st10" d="M938.2,423.2c36.5,26.4,51.7,67.7,51.7,67.7s-44-1.5-80.5-27.9s-51.7-67.7-51.7-67.7S901.7,396.8,938.2,423.2z
	"/>
<path class="st18" d="M857.7,395.2c0,0,45.7,25.4,60.3,46.3c14.7,21,71.9,49.3,71.9,49.3"/>
<path class="st10" d="M961.8,369.9c19.9,14.4,28.2,36.9,28.2,36.9s-24-0.8-43.8-15.2S918,354.7,918,354.7S941.9,355.6,961.8,369.9z"
	/>
<path class="st18" d="M918,354.7c0,0,24.9,13.8,32.8,25.2s39.1,26.9,39.1,26.9"/>
<path class="st10" d="M1018.9,405.7c-22.8,25.1-27.7,57.9-27.7,57.9s32.2-7.9,55-33c22.8-25.1,27.7-57.9,27.7-57.9
	S1041.7,380.6,1018.9,405.7z"/>
<path class="st18" d="M1073.9,372.7c0,0-29.7,25.7-37.3,43.4c-7.6,17.7-45.4,47.4-45.4,47.4"/>
<path class="st19" d="M557,345.3v2.3h-67.6v-1.9c1.9-0.7,3.6-1.6,5.2-2.8c5.8-4.2,9.3-10.9,9.3-18.1c0-1.8-0.2-3.7-0.7-5.5
	c-1.7-6.5-6.2-11.9-12.3-14.7h65.6c-6.1,2.8-10.6,8.2-12.3,14.7c-0.5,1.8-0.7,3.6-0.7,5.5c0,7.2,3.4,13.9,9.3,18.1
	C554.1,343.8,555.5,344.6,557,345.3z"/>
<path class="st2" d="M556.5,304.7c-6.1,2.8-10.6,8.2-12.3,14.7h-41.1c-1.7-6.5-6.2-11.9-12.3-14.7H556.5z"/>
<path class="st19" d="M412,293v12.8c0,7.1,5.2,12.8,11.6,12.8h198.9c6.4,0,11.6-5.8,11.6-12.8V293H412z"/>
<path class="st2" d="M557,345.3v2.3h-67.6v-1.9c1.9-0.7,3.6-1.6,5.2-2.8h58.2C554.1,343.8,555.5,344.6,557,345.3z"/>
<path class="st19" d="M470.4,343.6h105.5c1.9,0,3.4,1.5,3.4,3.4v0c0,1.9-1.5,3.4-3.4,3.4H470.4c-1.9,0-3.4-1.5-3.4-3.4v0
	C467,345.1,468.5,343.6,470.4,343.6z"/>
<path class="st20" d="M634,152.4c0-6.4-5.2-11.6-11.6-11.6c0,0,0,0,0,0H423.5c-6.4,0-11.6,5.2-11.6,11.6c0,0,0,0,0,0v143.1H634
	V152.4z"/>
<path class="st21" d="M628,157.5v123c0,3.1-2.5,5.7-5.7,5.7c0,0,0,0,0,0H423.7c-3.1,0-5.7-2.6-5.7-5.7c0,0,0,0,0,0v-123
	c0-1,0.3-2,0.8-2.9c1-1.8,2.9-2.9,4.9-2.9h198.6C625.4,151.8,628,154.4,628,157.5C628,157.5,628,157.5,628,157.5z"/>
<circle class="st5" cx="523" cy="146.3" r="2.7"/>
<circle class="st5" cx="523" cy="306.4" r="6.6"/>
<path class="st22" d="M628,157.5H418c0-3.1,2.6-5.7,5.7-5.7l0,0h198.5C625.4,151.8,628,154.4,628,157.5
	C628,157.5,628,157.5,628,157.5z"/>
<circle class="st23" cx="423.7" cy="154.7" r="1.4"/>
<circle class="st23" cx="428" cy="154.7" r="1.4"/>
<circle class="st23" cx="432.3" cy="154.7" r="1.4"/>
<path d="M682.3,242.5c-3.3-4.8,2.4,6.3-11.6-0.3c-5.4-2.9-5-8.6-2.4-11.9c-1.8,1.6-2.8,2.2-4.7,3.9c-11.5,3.7-7.8,5.6-3,13.3
	c0.1,2.1,3.2,3.4,3.4,5.1c0.1,0.8,0.8,1.4,1.5,1.6c3.7,1,4.9,0.1,5.5-2.6C675.7,250.8,681.8,246.3,682.3,242.5z"/>
</svg>